<svg xmlns="http://www.w3.org/2000/svg" viewBox="0 0 405 405"><defs><style>.cls-1{fill:#26a8b5;}.cls-2,.cls-3{fill:none;stroke-miterlimit:10;}.cls-2{stroke:#fff9cc;}.cls-3{stroke:#f9f9f9;}.cls-4{font-size:98.62px;font-family:RazedLight, Razed;}.cls-10,.cls-11,.cls-4{fill:#fff9cc;}.cls-5{letter-spacing:-0.3em;}.cls-6{letter-spacing:-0.22em;}.cls-7{font-size:82.19px;}.cls-8{letter-spacing:-0.13em;}.cls-9{letter-spacing:-0.26em;}.cls-11{fill-rule:evenodd;}</style></defs><title>IvanAguilarMUSIC&amp;amp;DESIGN1</title><g id="BGLOGO"><circle class="cls-1" cx="202.5" cy="202.5" r="178"/><circle class="cls-2" cx="202.75" cy="202.75" r="171.25"/><circle class="cls-3" cx="202.5" cy="202.5" r="202"/></g><g id="CHARLOGO"><text class="cls-4" transform="translate(139.85 180.68) scale(0.86 1)">I<tspan class="cls-5" x="13.87" y="0">v</tspan><tspan class="cls-6" x="40.11" y="0">a</tspan><tspan x="97.13" y="0">n</tspan><tspan class="cls-7"><tspan class="cls-8" x="-80.55" y="98.62">A</tspan><tspan x="-25.45" y="98.62">guil</tspan><tspan class="cls-9" x="145.38" y="98.62">a</tspan><tspan x="189.12" y="98.62">r</tspan></tspan></text><path class="cls-10" d="M161.48,429.76l1.48,1-1.55,2.27a7.91,7.91,0,0,1,2.86-.76,5.1,5.1,0,0,1,2.91.77,4.48,4.48,0,0,1,2,3.21,7,7,0,0,1-.24,2.37,7.73,7.73,0,0,1,3.38-1.34,4.92,4.92,0,0,1,3,.54,4.15,4.15,0,0,1,1.84,1.92,5.06,5.06,0,0,1,.4,2.82,14.13,14.13,0,0,1-1.52,4.25l-3.88,7.79-1.8-.91,4-7.74a12.83,12.83,0,0,0,1.32-3.28,3.19,3.19,0,0,0-.26-1.88,3,3,0,0,0-1.35-1.39,3.81,3.81,0,0,0-2.52-.39,5.19,5.19,0,0,0-2.56,1.23,16.58,16.58,0,0,0-2.92,4l-3.16,5.38-1.71-1,4.22-7a15.67,15.67,0,0,0,1.75-3.52,3.34,3.34,0,0,0-.09-2,3,3,0,0,0-1.26-1.53,3.87,3.87,0,0,0-2.45-.57,5.2,5.2,0,0,0-2.65,1,13.73,13.73,0,0,0-3,3.36L154,443.95l-1.65-1.15Z" transform="translate(-38 -117)"/><path class="cls-10" d="M182.42,441.88l1.6.73L181,449.4a16.78,16.78,0,0,0-1.29,3.53,4.06,4.06,0,0,0,.5,2.75,4.48,4.48,0,0,0,2.23,1.87,4.37,4.37,0,0,0,2.85.26,4.11,4.11,0,0,0,2.22-1.47,16.51,16.51,0,0,0,1.65-3.56l2.64-7,1.67.62-2.68,7.35a13.08,13.08,0,0,1-2.38,4.42,5.57,5.57,0,0,1-3,1.68,6.42,6.42,0,0,1-3.78-.5,6.52,6.52,0,0,1-3-2.33,5.54,5.54,0,0,1-.92-3.31,13.54,13.54,0,0,1,1.5-4.92Z" transform="translate(-38 -117)"/><path class="cls-10" d="M203.11,451.4l-1.47,1a4,4,0,0,0-2.2-2.32,2,2,0,0,0-1.6.19,2.2,2.2,0,0,0-1.06,1.27,2.47,2.47,0,0,0,0,1.57,7.09,7.09,0,0,0,1.58,2.26,8.84,8.84,0,0,1,2,3,4.47,4.47,0,0,1,0,2.61,4.59,4.59,0,0,1-2.14,2.85,4.21,4.21,0,0,1-3.51.37,5.38,5.38,0,0,1-3.52-3.53l1.61-1a4,4,0,0,0,2.41,2.64,2.66,2.66,0,0,0,2.11-.18,2.5,2.5,0,0,0,1.3-1.56,2.53,2.53,0,0,0-.06-1.65,9,9,0,0,0-1.74-2.31,7.14,7.14,0,0,1-1.82-2.9,4.81,4.81,0,0,1,2.11-5.09,3.47,3.47,0,0,1,2.9-.33C201.28,448.64,202.27,449.67,203.11,451.4Z" transform="translate(-38 -117)"/><path class="cls-10" d="M208.73,444.29a1.21,1.21,0,0,1,.82.71,1.86,1.86,0,0,1,.11,1.26,1.81,1.81,0,0,1-.67,1.06,1.2,1.2,0,0,1-1.9-.48,1.81,1.81,0,0,1-.09-1.25,1.86,1.86,0,0,1,.69-1.06A1.2,1.2,0,0,1,208.73,444.29Zm-2.43,6.16,1.68.42-3.78,15.49-1.88-.47Z" transform="translate(-38 -117)"/><path class="cls-10" d="M223.94,457.12l-1.52.83a5.81,5.81,0,0,0-4.48-3.49,5.49,5.49,0,0,0-4.42,1.11A6.74,6.74,0,0,0,211,459.7a6.85,6.85,0,0,0,.12,3.37,5.74,5.74,0,0,0,1.73,2.77,6,6,0,0,0,3,1.39,6.06,6.06,0,0,0,5.64-2l1.35,1.24a7,7,0,0,1-3.16,2.29,8.27,8.27,0,0,1-4.22.32,7.48,7.48,0,0,1-5.33-3.43,7.94,7.94,0,0,1-1-6.19,9.51,9.51,0,0,1,1.92-4,8.12,8.12,0,0,1,3.31-2.49,7.27,7.27,0,0,1,4-.42,7.38,7.38,0,0,1,2.46.87,7.22,7.22,0,0,1,1.92,1.54A7,7,0,0,1,223.94,457.12Z" transform="translate(-38 -117)"/><path class="cls-10" d="M241.64,462.76,243,464.3a25.2,25.2,0,0,1-2.4,2.17c.53.54,1.24,1.28,2.12,2.21.7.73,1.31,1.4,1.83,2-1.13,0-1.69,0-2.81,0-1.08-1.17-1.61-1.76-2.65-3a15.18,15.18,0,0,1-4.13,2.73,8.15,8.15,0,0,1-3.37.5,4.88,4.88,0,0,1-3.64-1.69,4.82,4.82,0,0,1-1.07-3.68,6.67,6.67,0,0,1,1.2-3.14,20.71,20.71,0,0,1,3.94-3.82,17.49,17.49,0,0,1-1.73-3.28,5,5,0,0,1-.27-2,3.74,3.74,0,0,1,1.22-2.58,4,4,0,0,1,3-1.06,3.92,3.92,0,0,1,2,.62,3.74,3.74,0,0,1,1.35,1.5,4.14,4.14,0,0,1,.44,2,4.9,4.9,0,0,1-.69,2.29,13.29,13.29,0,0,1-2.68,3c1.07,1.42,1.63,2.12,2.75,3.52.74.89,1.12,1.33,1.88,2.2A25.41,25.41,0,0,0,241.64,462.76Zm-8.52-2.38a18.72,18.72,0,0,0-3.39,3.08,4.4,4.4,0,0,0-.94,2.2,2.94,2.94,0,0,0,.79,2.24,3.18,3.18,0,0,0,2.3,1.1,4.78,4.78,0,0,0,2.1-.36,14.78,14.78,0,0,0,3.72-2.42c-1.21-1.43-1.8-2.14-2.95-3.59Q234,461.68,233.13,460.38Zm.37-2.84a9.46,9.46,0,0,0,2.11-2.3,3.06,3.06,0,0,0,.52-1.46,1.69,1.69,0,0,0-.56-1.31,2.32,2.32,0,0,0-1.57-.61,2.2,2.2,0,0,0-1.57.47,1.76,1.76,0,0,0-.68,1.28,2.48,2.48,0,0,0,.18,1.11A15.7,15.7,0,0,0,233.5,457.55Z" transform="translate(-38 -117)"/><path class="cls-10" d="M259.13,447.34l3.1,21.88-1.88.25-.35-2.72a7.86,7.86,0,0,1-2.39,2.66,6.67,6.67,0,0,1-3.2,1.12,6.75,6.75,0,0,1-5.55-2.06,8.41,8.41,0,0,1-2.45-5.86,9.05,9.05,0,0,1,1.83-6,6.47,6.47,0,0,1,4.73-2.79,5.75,5.75,0,0,1,3.06.53,7.81,7.81,0,0,1,2.66,2.2l-1.17-9Zm-5.84,8.45a4.85,4.85,0,0,0-2.62,1.06,6.1,6.1,0,0,0-1.83,2.49,7.31,7.31,0,0,0-.57,3.26,6.91,6.91,0,0,0,1,3.17,5.85,5.85,0,0,0,2.27,2.25,5.13,5.13,0,0,0,3,.62,5.4,5.4,0,0,0,2.86-1.14,5.5,5.5,0,0,0,1.84-2.53,7.6,7.6,0,0,0-1.84-7.72A5,5,0,0,0,253.29,455.79Z" transform="translate(-38 -117)"/><path class="cls-10" d="M277.58,460.79l1.76.48a8.92,8.92,0,0,1-1.07,3.07,6.92,6.92,0,0,1-1.91,2.08,7.46,7.46,0,0,1-2.78,1.18,6.65,6.65,0,0,1-6.1-1.39,8.84,8.84,0,0,1-3-5.36,9.66,9.66,0,0,1,.69-5.6,6.42,6.42,0,0,1,4.68-4A6.67,6.67,0,0,1,276,453a9.79,9.79,0,0,1,2.9,4.87,121.47,121.47,0,0,1-12.51,2.81,6.7,6.7,0,0,0,2.41,4.19,4.92,4.92,0,0,0,4.21,1,5.74,5.74,0,0,0,2.06-.9,5.47,5.47,0,0,0,1.5-1.52A8.92,8.92,0,0,0,277.58,460.79Zm-1.07-4.16a7.56,7.56,0,0,0-1.66-2.29,5.24,5.24,0,0,0-2.11-1.12,5,5,0,0,0-2.4-.07,4.78,4.78,0,0,0-3.09,2.17,7.4,7.4,0,0,0-1,3.54C270.39,458.12,272.44,457.67,276.51,456.63Z" transform="translate(-38 -117)"/><path class="cls-10" d="M286.94,448.64c-.25.67-.37,1-.63,1.66a4,4,0,0,0-3.14-.64,2,2,0,0,0-1.2,1.07,2.2,2.2,0,0,0-.14,1.65,2.47,2.47,0,0,0,.92,1.26,7.07,7.07,0,0,0,2.59.95,8.88,8.88,0,0,1,3.38,1.28,4.47,4.47,0,0,1,1.52,2.12,4.59,4.59,0,0,1-.12,3.56,4.22,4.22,0,0,1-2.67,2.32,5.36,5.36,0,0,1-4.9-.87c.3-.7.45-1,.74-1.74a4,4,0,0,0,3.49.78,2.67,2.67,0,0,0,1.62-1.36,2.5,2.5,0,0,0,.17-2,2.53,2.53,0,0,0-1-1.32,9,9,0,0,0-2.75-.89,7.13,7.13,0,0,1-3.15-1.33,4.82,4.82,0,0,1-1.19-5.38,3.46,3.46,0,0,1,2.18-1.94C283.85,447.43,285.25,447.71,286.94,448.64Z" transform="translate(-38 -117)"/><path class="cls-10" d="M287.49,439.59a1.22,1.22,0,0,1,1.09.11,1.85,1.85,0,0,1,.82,1,1.8,1.8,0,0,1,.05,1.26,1.22,1.22,0,0,1-1.84.7,1.8,1.8,0,0,1-.8-1,1.85,1.85,0,0,1,0-1.27A1.21,1.21,0,0,1,287.49,439.59ZM289,446l1.63-.62,5.79,14.85-1.82.7Z" transform="translate(-38 -117)"/><path class="cls-10" d="M304.7,439l1.56-.84,6.05,11.17a15.43,15.43,0,0,1,1.84,4.59,6.19,6.19,0,0,1-.86,4.28,8.66,8.66,0,0,1-3.75,3.18,10.15,10.15,0,0,1-3.57,1,6.9,6.9,0,0,1-3-.37,8.8,8.8,0,0,1-2.8-1.92l2-.84a5.58,5.58,0,0,0,3,1.23,7,7,0,0,0,3.5-.78,6.87,6.87,0,0,0,2.79-2.24,4.61,4.61,0,0,0,.9-2.67,8.92,8.92,0,0,0-1.25-3.66l-.38-.73a7.11,7.11,0,0,1-1.36,3.23,7.36,7.36,0,0,1-6.75,2.86,7.16,7.16,0,0,1-3.75-1.58,8.4,8.4,0,0,1-2.46-3.37,9.15,9.15,0,0,1-.69-4.18,8,8,0,0,1,1.22-3.83,6.52,6.52,0,0,1,2.73-2.48,6.06,6.06,0,0,1,2.9-.6,8.92,8.92,0,0,1,3.43,1Zm-4,3.75a5.27,5.27,0,0,0-2.2,2,6,6,0,0,0-.94,3,7.1,7.1,0,0,0,.58,3.25,5.93,5.93,0,0,0,3.22,3.33,6,6,0,0,0,7.7-3.66,6.13,6.13,0,0,0-.65-4.7,7.17,7.17,0,0,0-2.12-2.52,5.7,5.7,0,0,0-2.78-1.09A5.09,5.09,0,0,0,300.72,442.75Z" transform="translate(-38 -117)"/><path class="cls-10" d="M309.58,436.3l1.54-.9,1.46,2.45a8.47,8.47,0,0,1,.78-3.34,5.47,5.47,0,0,1,2-2.21,4.67,4.67,0,0,1,2.82-.78,5.51,5.51,0,0,1,2.88,1,14.42,14.42,0,0,1,3.24,3.58L329,442.8l-1.65,1.15L323,437.67a21.41,21.41,0,0,0-2.25-2.92,4.35,4.35,0,0,0-2.35-1.29,3.47,3.47,0,0,0-2.39.62,4.31,4.31,0,0,0-1.84,2.62,6,6,0,0,0,.09,3.51,23.16,23.16,0,0,0,2,3.86l3,5-1.71,1Z" transform="translate(-38 -117)"/><path class="cls-11" d="M338.52,317.86c-.25,1.88,2.43,1.42-12.76,1.45-.82,0-1.79,0-2.57,0-3.85,0-3.08-.17-3.06-2.59a11.84,11.84,0,0,0-.11-2.49h-2.54l0,4.86h-1.89c-.77-.63-.32-1.74-.42-2.54l-3,.08c-.09,1.05.46,1.94-.7,2.49-.33,0-1.59.09-1.89-.65,0-.07-.09-.1-.16-.14l-2.15,0,.12.8-1.12,0c-1.37-.06-.51,0-1.33-.19l-.11-1.77h-3l-.07,1.81c-.91.18.33.09-1,.15l-11.36,0c-1.05-1-.42-4.92-.42-6.23l-2.08.08-.14-.06a8,8,0,0,0-.23,3.29l-.49,2.89c-2.43-.09-1.68.33-1.86-.7l.14-3-3,0c-.12,1.12.72,2.73-.33,3.72h-1.54c-.95-.62-.42-4.25-.47-5l-2.73-.07c.23,1,.51,4.3-.19,5.12-3,.1-1.35,0-2-.23L273.9,316h-2.7l.07,2.71a.61.61,0,0,1-.35.4c-.6.11.75.1-1.7.18H257.46a18.28,18.28,0,0,1-4.24-.19l-.49-3.39c-.05,0-.14,0-.16,0s-.14,0-.16,0l-.19.06-.47.15-.3.09-1.14.25-.11,2.74-2.21.09c-.74-.6-.37-1.22-.49-2l.32-.11-.12-.21-.44-2.72h-1.54c-.33.17-.37.08-.61.41-1.05,1.46,2.42,5.38-2.4,4.48l-.14-2.47-2.71.09c0,1,.49,2-.75,2.48-.37,0-1.59,0-1.89-.66,0-.07-.09-.09-.16-.14l-2,0c-1.05.69.12.68-2,.78-.47-.23-.39.09-.7-.56a5.33,5.33,0,0,1,.05-.69h-2.84l0,1.26-17.87-.06,0-8.09-3,.11c.12,1.62-.63,6.94.37,8l-2.5,0,.05-6.24-3.06.07,0,5.85c-.56.62,1,.24-1.7.38-1-.56-.49-1.55-.63-2.55l-3,0,0,2.56-17.54,0-.18-.13a1.69,1.69,0,0,1-.16-.14l-.11-.95-2.49,0a3.51,3.51,0,0,1,0,.61c-.23.69-.18.32-.49.48s.07.11-.93.11-.39.11-1-.15l-.09-1.8h-2.52l-.11,1.93c-3.12.08-1.65,0-2.35-.17l-.05-3-3,0v3.07H134.05l0-1.26H131c.07,1.46.16,1.08-1,1.28-1.51-.26-.68.4-1.09-.54l.05-2h-3l0,2.54c-3.19,0-2.26.06-2.28-1.12l-3-.13,0,1s-.12.15-.14.13-.12.08-.18.12l-1.65,0-.47-.76-2,0-.23.13-.21.13-.18.13a3.87,3.87,0,0,1-.42.38c-3.57.07-9.28-.28-12.18.13l-.07.33c.86.23-.82.11,1.54.24H371.63c3.17,0,6.72.15,8.37-.23-.68-.58,1.1-.45-2.73-.46h-9.71l-.81-.28a3.92,3.92,0,0,0-3,.15c-.81.18.95.1-1.51.14-1.24-.91,1.19-.81-3.43-.79l-.25.65s-.12.07-.18.13l-12.2,0,0-2.55-2.8.08a6.49,6.49,0,0,0,0,1.43c.07,1.23-.23.92-1.26,1.06-1.17-.25-.86.44-.95-1.28Zm-88.3-5.43.05,3.49c.07,0,.21-.05.23,0l1.45-.44c1.56-.61.89-1.44.88-3Z" transform="translate(-38 -117)"/><polygon class="cls-11" points="155.25 210.96 158.31 210.96 158.34 203.23 155.26 203.24 155.25 210.96"/><polygon class="cls-11" points="253.56 210.97 256.55 210.93 256.59 203.25 253.54 203.22 253.56 210.97"/><polygon class="cls-11" points="217.61 210.87 219.92 210.91 220.11 203.21 217.73 203.29 217.64 203.32 217.61 210.87"/><path class="cls-11" d="M214.2,326.75l2.59,0c0-1.12,0-2.25,0-3.37,0-1.58.32-1.81-2.63-2.52Zm2.61-6.55-2.56,0c.25.75,1,.92,2.54,1.18Z" transform="translate(-38 -117)"/><polygon class="cls-11" points="222.54 208.49 225.55 208.48 225.61 203.23 222.54 203.24 222.54 208.49"/><polygon class="cls-11" points="150.19 208.41 152.85 208.4 152.88 203.2 150.22 203.25 150.19 208.41"/><polygon class="cls-11" points="284.71 208.42 287.36 208.4 287.43 203.2 284.99 203.29 284.89 203.31 284.71 208.42"/><path class="cls-11" d="M224.21,324.25l0,.37a11.59,11.59,0,0,0,1.58.17,5.92,5.92,0,0,0-.72-.28c-.82-.26-.37-.1-.89-.26Zm3.15.45V324c-1.47.28-1,0-1.52.63Zm0-1-.05-3.49-3,0,0,3.89,1.61.17a6.29,6.29,0,0,1,1.51-.54Z" transform="translate(-38 -117)"/><polygon class="cls-11" points="145.08 207.23 147.96 207.2 148.03 203.25 144.94 203.22 145.08 207.23"/><path class="cls-11" d="M255.61,327.87c.91.19-1,.1,1.26.13,1.24,0,.68,0,1.05-.09s.61.11.68-.8l0-6.52c-.14-.3-.28-.27-.46-.38l-.19,7.71-2.31,0,0-7.54.09,0-.09,0c-.35.1-.56-.16-.61.75s-.4,6.63.58,6.79Z" transform="translate(-38 -117)"/><polygon class="cls-11" points="113.99 206.23 116.7 206.25 116.74 203.21 113.95 203.24 113.99 206.23"/><polygon class="cls-11" points="310.74 206.58 313.24 206.59 313.21 203.22 310.81 203.23 310.74 206.58"/><path class="cls-11" d="M250.27,315.91l.05.44,1.14-.25.3-.09.47-.15.19-.06s.14,0,.16,0,.11,0,.16,0l.49,3.39a18.28,18.28,0,0,0,4.24.19h11.76c2.45-.07,1.1-.06,1.7-.18a.61.61,0,0,0,.35-.4L271.2,316c-.74.48-.46.87-.46,1.54a4.37,4.37,0,0,0,.18,1.57l-17.7,0,0-6.82a17.44,17.44,0,0,0-1.84,0,3.14,3.14,0,0,0-1.16.16h2.61c0,1.56.68,2.39-.88,3l-1.45.44s-.16,0-.23,0Z" transform="translate(-38 -117)"/><path class="cls-11" d="M299,320.24l-1.89,0-.14,3a1.6,1.6,0,0,0,.09.5c.23.38.28.24.61.39,2-.15,1.4.4,1.38-1.73a13,13,0,0,0-.05-2.18Z" transform="translate(-38 -117)"/><path class="cls-11" d="M219.15,322.58l.16.93h2.4a5.27,5.27,0,0,0-2.56-.94Zm2.56-2.34h-2.49l0,2.18,2.5.71Z" transform="translate(-38 -117)"/><path class="cls-11" d="M338.52,317.86l-.19.11s-.14.09-.18.13l0,1-17.5,0-.12-5a10.63,10.63,0,0,0-3,.14H320a11.84,11.84,0,0,1,.11,2.49c0,2.42-.79,2.56,3.06,2.59.79,0,1.75,0,2.57,0,15.19,0,12.51.43,12.76-1.45Z" transform="translate(-38 -117)"/><path class="cls-11" d="M286.73,313l.14.06,2.08-.08c0,1.31-.63,5.25.42,6.23l11.36,0c1.37-.06.12,0,1-.15l-12.25,0-.05-4.77c0-1.17.39-1.12-.51-1.3-.68-.11-1.82-.35-2.08.08Z" transform="translate(-38 -117)"/><path class="cls-11" d="M242.73,319c4.81.91,1.35-3,2.4-4.48.25-.33.28-.24.61-.41h1.54l.44,2.72a2.11,2.11,0,0,0,.07-2.82l-3,0-.14,5Zm5.29.14-.18-2.09-.32.11c.12.76-.25,1.38.49,2Z" transform="translate(-38 -117)"/><polygon class="cls-11" points="289.81 204.75 292.83 204.75 292.85 203.23 289.79 203.24 289.81 204.75"/><path class="cls-11" d="M322.71,325.42l1.47.15c.58,0,.88,0,1.38-.06.67-.85.32-1.87.32-2.76,0-.45,0-.89,0-1.34a2.2,2.2,0,0,0,0-.68l-.47-.54-.07,5.19-2.64,0,.18-5.11.11,0-.11,0c-.79.22-.49-.19-.63.59Z" transform="translate(-38 -117)"/><polygon class="cls-11" points="227.64 204.75 230.59 204.73 230.59 203.24 227.57 203.22 227.64 204.75"/><polygon class="cls-11" points="119.07 204.75 121.99 204.72 122.06 203.25 118.98 203.22 119.07 204.75"/><path class="cls-11" d="M214.2,326.75l-.05-5.85c2.94.72,2.64.95,2.63,2.52,0,1.12,0,2.24,0,3.37.79-.46.49-1.06.47-1.7l-.46-4.89,0,1.22c-1.51-.26-2.29-.43-2.54-1.18-.77.44-.56,1.08-.54,1.69Z" transform="translate(-38 -117)"/><path class="cls-11" d="M188.19,325.41a8,8,0,0,0,2.82.11c.39-.43.89-4.66-.12-5.33l0,5.21h-2.66l0-5.16-.44,2.67v1.34a2.86,2.86,0,0,0,0,.67c.05.21,0,.11.12.28s.12.13.14.1.11.07.14.1Z" transform="translate(-38 -117)"/><polygon class="cls-11" points="315.76 204.75 318.49 204.74 318.53 203.23 315.76 203.22 315.76 204.75"/><path class="cls-11" d="M299,320.24a13,13,0,0,1,.05,2.18c0,2.13.58,1.58-1.38,1.73-.33-.15-.39,0-.61-.39a1.6,1.6,0,0,1-.09-.5l.14-3c-.7.4-.53.47-.53,1l.16,3,2.82,0a8.63,8.63,0,0,0,.11-2.12c0-.5.6-1.57-.67-1.85Z" transform="translate(-38 -117)"/><path class="cls-11" d="M274,318.92c.67.27-1,.33,2,.23.7-.82.42-4.12.19-5.12l2.73.07a5.12,5.12,0,0,0-2.73-.07c-.88.58-.44,4.41-.37,5Z" transform="translate(-38 -117)"/><path class="cls-11" d="M348.74,323.58a4.7,4.7,0,0,0,1.44.11c1.91,0,.51,0,1.07-.1.25-.1.28,0,.46-.34l-.28-2.91c0-.07-.14-.07-.21-.11l0,3.37h-2.5l.07-3.35c-1,.38-.6,1-.6,1.69,0,.33-.28,1.46.53,1.66Z" transform="translate(-38 -117)"/><polygon class="cls-11" points="108.86 204.11 111.5 204.15 111.63 203.16 108.78 203.19 108.86 204.11"/><polygon class="cls-11" points="103.44 204.06 106.39 204.12 106.36 203.21 103.49 203.32 103.44 204.06"/><polygon class="cls-11" points="124.27 204.09 127.06 204.07 127.05 203.25 124.3 203.28 124.27 204.09"/><path class="cls-11" d="M177.37,319.06l-1.89,0c.58.26-.14.15,1,.15s.51,0,.93-.11.26.21.49-.48a3.51,3.51,0,0,0,0-.61l2.49,0,.11.95a1.69,1.69,0,0,0,.16.14l.18.13a2.86,2.86,0,0,0,.07-.77c-.14-.54.32-.28-.51-.45s.51-.07-1.37-.14l-1.44,0Z" transform="translate(-38 -117)"/><path class="cls-11" d="M224.24,324.62c.33.38-.18.14.6.35.68,0,.81,0,1.49-.06,1.37-.13.25,0,1-.21l-1.52-.1c.53-.64.05-.35,1.52-.63l0-.22a6.29,6.29,0,0,0-1.51.54l-1.61-.17,0,.14c.53.15.07,0,.89.26a5.92,5.92,0,0,1,.72.28,11.59,11.59,0,0,1-1.58-.17Z" transform="translate(-38 -117)"/><path class="cls-11" d="M219.18,322.42l0,.16a5.27,5.27,0,0,1,2.56.94h-2.4a6.85,6.85,0,0,0,2.68.14l-.28-3.42,0,2.89Z" transform="translate(-38 -117)"/><path class="cls-11" d="M146.86,321.11l2.64,0c1.1-.36.77.72.82-.57,0-.54-.25-.26-.7-.43l-.12,1-2.64,0-.09-.92c-.81.41-.72-.6-.56.55.07.49-.14.19.65.37Z" transform="translate(-38 -117)"/><path class="cls-11" d="M170.42,319c.7.19-.77.25,2.35.17l.11-1.93c-.82.45-.47,1.1-.51,1.81Z" transform="translate(-38 -117)"/><path class="cls-11" d="M120.43,319.14c.05,0,.16-.14.18-.12s.12-.09.14-.13l0-1,3,.13c-.74-.36,1.09-.16-1.35-.26l-1.24.08c-.07,0-.25,0-.37.05-.72.39-.39.77-.33,1.26Z" transform="translate(-38 -117)"/><path class="cls-11" d="M305,319c.82.22,0,.13,1.33.19l1.12,0-.12-.8c-.14.1-.11-.07-.42.41a.71.71,0,0,0,0,.33Z" transform="translate(-38 -117)"/></g></svg>