<svg id="Capa_1" data-name="Capa 1" xmlns="http://www.w3.org/2000/svg" viewBox="0 0 2267.72 2267.72"><defs><style>.cls-1{fill:#031a28;}.cls-2{fill:#6eb4d0;}</style></defs><title>HIAV icon</title><rect class="cls-1" x="265.55" y="245.47" width="1776.78" height="1776.78"/><circle class="cls-1" cx="1133.86" cy="1133.86" r="1084.51"/><path class="cls-2" d="M1544,1873.4q0,42.24-32.16,42.24t-32.16-42.28v-706H788.09v706q0,42.3-32.18,42.28t-32.16-42.24V433.81q0-42.21,32.16-42.22t32.18,42.15V1083h691.56V433.74q0-42.14,32.16-42.15T1544,433.81Z"/><path class="cls-2" d="M1152.9,1093.21c0,5.63-5,8.44-15.08,8.44s-15.06-2.81-15.06-8.44V805.59q0-8.43,15.06-8.43c10,0,15.08,2.81,15.08,8.43Z"/><path class="cls-2" d="M1345.71,1741.15q0,12.27-16.94,12.26-8.83,0-13.25-9.67l-88.72-235.2h-178l-88.7,235.2q-4.42,9.66-13.26,9.67-16.93,0-16.93-11.1a28.81,28.81,0,0,1,2.22-9.65L1123,1230.38q1.47-11.84,14.81-11.83t14.79,11.83L1343.48,1732C1345,1736.05,1345.71,1739.11,1345.71,1741.15ZM1216.32,1479l-78.49-204.25L1060.9,1479Z"/><path class="cls-2" d="M1328,1322.94a26.1,26.1,0,0,1-1.48,8.14l-173.09,503.05c-1,8.39-5.92,12.58-14.81,12.58s-13.82-4-14.8-11.84l-173.1-503.79a25.57,25.57,0,0,1-1.49-8.14c0-7.39,5.43-11.09,16.34-11.09q9.64,0,13.36,10.31l159.69,464,161.23-464q3.69-10.34,13.34-10.34Q1328,1311.85,1328,1322.94Z"/><circle class="cls-2" cx="1138.61" cy="568.13" r="95.37"/><polygon class="cls-2" points="1137.83 774.9 1122.04 802.25 1153.62 802.25 1137.83 774.9"/></svg>